<?xml version="1.0" encoding="utf-8"?>
<!-- Generator: Adobe Illustrator 19.1.0, SVG Export Plug-In . SVG Version: 6.00 Build 0)  -->
<!DOCTYPE svg PUBLIC "-//W3C//DTD SVG 1.1//EN" "http://www.w3.org/Graphics/SVG/1.1/DTD/svg11.dtd">
<svg version="1.1" id="Icons_3_" xmlns="http://www.w3.org/2000/svg" xmlns:xlink="http://www.w3.org/1999/xlink" x="0px" y="0px"
	 width="150px" height="150px" viewBox="0 0 150 150" enable-background="new 0 0 150 150" xml:space="preserve">
<g id="Savings">
</g>
<g id="Savings_goals">
</g>
<g id="Save">
</g>
<g id="Report">
</g>
<g id="Reply">
</g>
<g id="Renew">
</g>
<g id="Refresh">
</g>
<g id="Rates">
</g>
<g id="Quote_open">
</g>
<g id="Quote_close">
</g>
<g id="Print">
</g>
<g id="presentation">
</g>
<g id="Portfolio">
</g>
<g id="Pop_up_window">
</g>
<g id="Play">
</g>
<g id="Pin">
</g>
<g id="Phone">
</g>
<g id="PDF">
</g>
<g id="Pay_move_money">
</g>
<g id="Offers_rewards">
</g>
<g id="New_window">
</g>
<g id="Multiple_users">
</g>
<g id="Multiple_documents">
</g>
<g id="More">
</g>
<g id="Mobile">
</g>
<g id="Messages">
</g>
<g id="Menu">
</g>
<g id="Memo">
</g>
<g id="Log_on_security">
</g>
<g id="Location">
</g>
<g id="List_View">
</g>
<g id="Link">
</g>
<g id="Investments">
</g>
<g id="Intranet">
</g>
<g id="Insurance">
</g>
<g id="Home">
</g>
<g id="Help">
</g>
<g id="Health">
</g>
<g id="Grid_view">
</g>
<g id="Global">
</g>
<g id="Filter">
</g>
<g id="Favourite">
</g>
<g id="Export">
</g>
<g id="Expand">
</g>
<g id="Education">
</g>
<g id="Edit">
</g>
<g id="Download">
</g>
<g id="Dollar_Bill">
</g>
<g id="Document">
</g>
<g id="Do_not_view">
	<path d="M54.6,92.5C54.6,92.5,54.6,92.5,54.6,92.5l4.3-4.3c0,0,0,0,0,0l39.6-39.5l0,0l18.1-18.1l-3.7-3.7L93.5,46.3
		C88.1,44,81.9,42.6,75,42.6c-27.7,0-43.4,23.4-45.6,26.1C27.2,71.4,27,75,27,75s0.3,2.4,2.2,4.9c1.1,1.4,5.3,9.2,14.6,16L27,112.6
		l3.7,3.7l17.5-17.4c0,0,0,0,0,0L54.6,92.5z M58.7,59.9c2.4-3.8,5.6-5.4,7-5.9c1.2-0.5,2.7,0.1,3.1,1.3c0.5,1.3-0.1,2.7-1.4,3.2
		c-0.5,0.2-3,1.2-4.6,3.9c-1.7,2.9-1.5,5.4-1.4,5.9c0.1,1.3-1,2.5-2.3,2.7c-1.3,0.1-2.5-0.8-2.6-2.2C56.4,67.2,56.4,63.6,58.7,59.9z
		 M38.4,78.6c-1.4-1.9-1.7-3.7-1.7-3.7s0.1-2.7,1.8-4.8c1.1-1.3,6.2-9.1,16.7-14.6c-2.9,4-4.6,8.9-4.6,14.2c0,5.4,1.8,10.4,4.8,14.5
		L50,89.7C42.9,84.9,39.2,79.7,38.4,78.6z"/>
	<path d="M120.6,68.7c-1.3-1.6-7.2-10.3-17.5-17.2l-5.4,5.4c8.8,5.3,13.4,12,14.4,13.3c1.7,2,1.8,4.8,1.8,4.8s-0.2,1.8-1.7,3.7
		c-1.4,1.9-12.6,17.8-36.3,19.4h-0.6h-0.6c-5.7-0.4-10.7-1.6-15-3.3l-6.7,6.7c5.8,2.7,12.8,4.7,21.1,5.3H75h0.8
		c31.3-2.2,43.1-24.4,45-26.9c1.9-2.5,2.2-4.9,2.2-4.9S122.8,71.4,120.6,68.7z"/>
	<path d="M99.4,69.8c0-4.2-1.1-8.2-2.9-11.6l-33.1,33c3.5,1.9,7.4,3,11.7,3C88.5,94.2,99.4,83.3,99.4,69.8z"/>
</g>
<g id="Dining">
</g>
<g id="Devices">
</g>
<g id="Desktop_Computer">
</g>
<g id="Delete">
</g>
<g id="Dashboard">
</g>
<g id="Copy">
</g>
<g id="Contactless_Payment">
</g>
<g id="Confidential">
</g>
<g id="Compose">
</g>
<g id="Complaints">
</g>
<g id="Column_View">
</g>
<g id="Collapse">
</g>
<g id="Circle_upload">
</g>
<g id="Circle_Download">
</g>
<g id="Circle_Warning">
</g>
<g id="Circle_warning_Solid">
</g>
<g id="Circle_Information">
</g>
<g id="Circle_information_solid">
</g>
<g id="Circle_Help">
</g>
<g id="Circle_Help_solid">
</g>
<g id="Circle_Error">
</g>
<g id="Circle_Error_solid">
</g>
<g id="Circle_confirmation">
</g>
<g id="Circle_confirmation_solid">
</g>
<g id="Chevron_up">
</g>
<g id="Chevron_right">
</g>
<g id="Chevron_right_small">
</g>
<g id="Chevron_left">
</g>
<g id="Chevron_down">
</g>
<g id="Chevron_double_right">
</g>
<g id="Chevron_double_left">
</g>
<g id="Chat">
</g>
<g id="Chart">
</g>
<g id="Cancel_Close">
</g>
<g id="Calendar">
</g>
<g id="Business">
</g>
<g id="Barcode">
</g>
<g id="Banking">
</g>
<g id="Back">
</g>
<g id="Attachment">
</g>
<g id="At_a_Branch">
</g>
<g id="Assets_Borrowing">
</g>
<g id="Article">
</g>
<g id="Anchor_Up">
</g>
<g id="Anchor_down">
</g>
<g id="Alert_2">
</g>
<g id="Alert_1">
</g>
<g id="Agree">
</g>
<g id="Add">
</g>
<g id="Accounts">
</g>
</svg>
