<?xml version="1.0" encoding="utf-8"?>
<!-- Generator: Adobe Illustrator 19.1.0, SVG Export Plug-In . SVG Version: 6.00 Build 0)  -->
<!DOCTYPE svg PUBLIC "-//W3C//DTD SVG 1.1//EN" "http://www.w3.org/Graphics/SVG/1.1/DTD/svg11.dtd">
<svg version="1.1" xmlns="http://www.w3.org/2000/svg" xmlns:xlink="http://www.w3.org/1999/xlink" x="0px" y="0px" width="150px"
	 height="150px" viewBox="0 0 150 150" enable-background="new 0 0 150 150" xml:space="preserve">
<g id="Staff_Channels">
	<g id="Signature">
	</g>
	<g id="Shortcuts">
	</g>
	<g id="Microphone">
	</g>
	<g id="Dial">
	</g>
</g>
<g id="Social_Icons">
	<g id="Youtube">
	</g>
	<g id="Youtube_Solid">
	</g>
	<g id="Weibo">
	</g>
	<g id="Weibo_Solid">
	</g>
	<g id="Vimeo">
	</g>
	<g id="Vimeo_Solid">
	</g>
	<g id="Twitter">
	</g>
	<g id="Twitter_Solid">
	</g>
	<g id="LinkedIn">
	</g>
	<g id="LinkedIn_Solid">
	</g>
	<g id="GooglePlus">
	</g>
	<g id="GooglePlus_Solid">
	</g>
	<g id="Facebook">
		<path d="M77.6,123V82.1H66.8V67.3h10.8c0,0,0-6,0-12.6c0-9.9,6.4-19,21.2-19c5.9,0,10.4,0.6,10.4,0.6l-0.4,13.8c0,0-4.5,0-9.4,0
			c-5.3,0-6.2,2.4-6.2,6.5c0,0.5,0,0.7,0,0.7c0,1.1,0,3.9,0,10h16l-0.7,14.6H93V123H77.6z"/>
	</g>
	<g id="Facebook_Solid">
	</g>
</g>
<g id="Icons_3_">
	<g id="Warning">
	</g>
	<g id="View">
	</g>
	<g id="Video">
	</g>
	<g id="User_personal">
	</g>
	<g id="Upload">
	</g>
	<g id="Travel">
	</g>
	<g id="Transfer">
	</g>
	<g id="Tools">
	</g>
	<g id="Time">
	</g>
	<g id="Time_fast_track">
	</g>
	<g id="Take_photo">
	</g>
	<g id="Tablet">
	</g>
	<g id="Switch">
	</g>
	<g id="Survey">
	</g>
	<g id="Subtract">
	</g>
	<g id="Stock_Up">
	</g>
	<g id="Stock_down">
	</g>
	<g id="Sound">
	</g>
	<g id="Shopping_Cart">
	</g>
	<g id="Share">
	</g>
	<g id="Settings">
	</g>
	<g id="Security">
	</g>
	<g id="Secure_Key_Passcode">
	</g>
	<g id="Search">
	</g>
	<g id="Script">
	</g>
</g>
</svg>
