<?xml version="1.0" encoding="utf-8"?>
<!-- Generator: Adobe Illustrator 19.1.0, SVG Export Plug-In . SVG Version: 6.00 Build 0)  -->
<!DOCTYPE svg PUBLIC "-//W3C//DTD SVG 1.1//EN" "http://www.w3.org/Graphics/SVG/1.1/DTD/svg11.dtd">
<svg version="1.1" id="Icons_3_" xmlns="http://www.w3.org/2000/svg" xmlns:xlink="http://www.w3.org/1999/xlink" x="0px" y="0px"
	 width="150px" height="150px" viewBox="0 0 150 150" enable-background="new 0 0 150 150" xml:space="preserve">
<g id="Savings">
</g>
<g id="Savings_goals">
</g>
<g id="Save">
</g>
<g id="Report">
</g>
<g id="Reply">
</g>
<g id="Renew">
</g>
<g id="Refresh">
</g>
<g id="Rates">
</g>
<g id="Quote_open">
</g>
<g id="Quote_close">
</g>
<g id="Print">
</g>
<g id="presentation">
</g>
<g id="Portfolio">
</g>
<g id="Pop_up_window">
</g>
<g id="Play">
</g>
<g id="Pin">
</g>
<g id="Phone">
</g>
<g id="PDF">
</g>
<g id="Pay_move_money">
</g>
<g id="Offers_rewards">
</g>
<g id="New_window">
</g>
<g id="Multiple_users">
</g>
<g id="Multiple_documents">
</g>
<g id="More">
</g>
<g id="Mobile">
</g>
<g id="Messages">
</g>
<g id="Menu">
</g>
<g id="Memo">
</g>
<g id="Log_on_security">
	<path d="M111,71v52H39V71h8c0,0,0-1.3,0-17v-0.2C47,39,60,27,74.4,27S103,39,103,53.9c0,0,0,0,0,0.2v17L111,71z M90.9,52.3
		L90.9,52.3c0-8-8.7-14.4-16.4-14.4c-7.6,0-15.2,6.4-15.2,14.4c0,0,0,0,0,0.1V71h31.6L90.9,52.3L90.9,52.3z M69,111h12.1
		c0.7,0,1.2-0.7,0.9-1.4l-5.1-12.3c3.2-0.9,5.4-3.7,5.4-7c0-4.6-4.3-8.1-8.9-7.1c-2.8,0.6-5.1,3-5.6,5.8c-0.7,3.9,1.7,7.3,5.3,8.3
		l-5,12.3C67.8,110.3,68.3,111,69,111z"/>
</g>
<g id="Location">
</g>
<g id="List_View">
</g>
<g id="Link">
</g>
<g id="Investments">
</g>
<g id="Intranet">
</g>
<g id="Insurance">
</g>
<g id="Home">
</g>
<g id="Help">
</g>
<g id="Health">
</g>
<g id="Grid_view">
</g>
<g id="Global">
</g>
<g id="Filter">
</g>
<g id="Favourite">
</g>
<g id="Export">
</g>
<g id="Expand">
</g>
<g id="Education">
</g>
<g id="Edit">
</g>
<g id="Download">
</g>
<g id="Dollar_Bill">
</g>
<g id="Document">
</g>
<g id="Do_not_view">
</g>
<g id="Dining">
</g>
<g id="Devices">
</g>
<g id="Desktop_Computer">
</g>
<g id="Delete">
</g>
<g id="Dashboard">
</g>
<g id="Copy">
</g>
<g id="Contactless_Payment">
</g>
<g id="Confidential">
</g>
<g id="Compose">
</g>
<g id="Complaints">
</g>
<g id="Column_View">
</g>
<g id="Collapse">
</g>
<g id="Circle_upload">
</g>
<g id="Circle_Download">
</g>
<g id="Circle_Warning">
</g>
<g id="Circle_warning_Solid">
</g>
<g id="Circle_Information">
</g>
<g id="Circle_information_solid">
</g>
<g id="Circle_Help">
</g>
<g id="Circle_Help_solid">
</g>
<g id="Circle_Error">
</g>
<g id="Circle_Error_solid">
</g>
<g id="Circle_confirmation">
</g>
<g id="Circle_confirmation_solid">
</g>
<g id="Chevron_up">
</g>
<g id="Chevron_right">
</g>
<g id="Chevron_right_small">
</g>
<g id="Chevron_left">
</g>
<g id="Chevron_down">
</g>
<g id="Chevron_double_right">
</g>
<g id="Chevron_double_left">
</g>
<g id="Chat">
</g>
<g id="Chart">
</g>
<g id="Cancel_Close">
</g>
<g id="Calendar">
</g>
<g id="Business">
</g>
<g id="Barcode">
</g>
<g id="Banking">
</g>
<g id="Back">
</g>
<g id="Attachment">
</g>
<g id="At_a_Branch">
</g>
<g id="Assets_Borrowing">
</g>
<g id="Article">
</g>
<g id="Anchor_Up">
</g>
<g id="Anchor_down">
</g>
<g id="Alert_2">
</g>
<g id="Alert_1">
</g>
<g id="Agree">
</g>
<g id="Add">
</g>
<g id="Accounts">
</g>
</svg>
