<?xml version="1.0" encoding="utf-8"?>
<!-- Generator: Adobe Illustrator 19.1.0, SVG Export Plug-In . SVG Version: 6.00 Build 0)  -->
<!DOCTYPE svg PUBLIC "-//W3C//DTD SVG 1.1//EN" "http://www.w3.org/Graphics/SVG/1.1/DTD/svg11.dtd">
<svg version="1.1" xmlns="http://www.w3.org/2000/svg" xmlns:xlink="http://www.w3.org/1999/xlink" x="0px" y="0px" width="150px"
	 height="150px" viewBox="0 0 150 150" enable-background="new 0 0 150 150" xml:space="preserve">
<g id="Staff_Channels">
	<g id="Signature">
	</g>
	<g id="Shortcuts">
	</g>
	<g id="Microphone">
	</g>
	<g id="Dial">
	</g>
</g>
<g id="Social_Icons">
	<g id="Youtube">
	</g>
	<g id="Youtube_Solid">
	</g>
	<g id="Weibo">
	</g>
	<g id="Weibo_Solid">
	</g>
	<g id="Vimeo">
	</g>
	<g id="Vimeo_Solid">
	</g>
	<g id="Twitter">
	</g>
	<g id="Twitter_Solid">
	</g>
	<g id="LinkedIn">
	</g>
	<g id="LinkedIn_Solid">
	</g>
	<g id="GooglePlus">
	</g>
	<g id="GooglePlus_Solid">
	</g>
	<g id="Facebook">
	</g>
	<g id="Facebook_Solid">
	</g>
</g>
<g id="Icons_3_">
	<g id="Warning">
	</g>
	<g id="View">
		<path d="M120.6,68.7C118.4,66,102.7,42.6,75,42.6S31.6,66,29.4,68.7C27.2,71.4,27,75,27,75s0.3,2.4,2.2,4.9
			c1.9,2.5,13.7,24.7,45,26.9H75h0.8c31.3-2.2,43.1-24.4,45-26.9c1.9-2.5,2.2-4.9,2.2-4.9S122.8,71.4,120.6,68.7z M58.7,59.8
			c2.4-3.8,5.6-5.4,7-5.9c1.2-0.5,2.7,0.1,3.1,1.3c0.5,1.3-0.1,2.7-1.4,3.2c-0.5,0.2-3,1.2-4.6,3.9c-1.7,2.9-1.5,5.4-1.4,5.9
			c0.1,1.3-1,2.5-2.3,2.7c-1.3,0.1-2.5-0.8-2.6-2.2C56.4,67.2,56.3,63.6,58.7,59.8z M112.2,78.6c-1.4,1.9-12.5,17.8-36.3,19.5h-0.6
			h-0.6C51,96.4,39.8,80.5,38.4,78.6c-1.4-1.9-1.7-3.7-1.7-3.7s0.1-2.7,1.8-4.8c1.1-1.3,6.2-9.1,16.7-14.6c-2.9,4-4.6,8.9-4.6,14.2
			c0,13.5,10.9,24.4,24.4,24.4s24.4-10.9,24.4-24.4c0-5.5-1.8-10.6-4.9-14.7c11,5.4,16.5,13.7,17.7,15.1c1.7,2,1.8,4.8,1.8,4.8
			S113.6,76.7,112.2,78.6z"/>
	</g>
	<g id="Video">
	</g>
	<g id="User_personal">
	</g>
	<g id="Upload">
	</g>
	<g id="Travel">
	</g>
	<g id="Transfer">
	</g>
	<g id="Tools">
	</g>
	<g id="Time">
	</g>
	<g id="Time_fast_track">
	</g>
	<g id="Take_photo">
	</g>
	<g id="Tablet">
	</g>
	<g id="Switch">
	</g>
	<g id="Survey">
	</g>
	<g id="Subtract">
	</g>
	<g id="Stock_Up">
	</g>
	<g id="Stock_down">
	</g>
	<g id="Sound">
	</g>
	<g id="Shopping_Cart">
	</g>
	<g id="Share">
	</g>
	<g id="Settings">
	</g>
	<g id="Security">
	</g>
	<g id="Secure_Key_Passcode">
	</g>
	<g id="Search">
	</g>
	<g id="Script">
	</g>
</g>
</svg>
