<?xml version="1.0" encoding="utf-8"?>
<!-- Generator: Adobe Illustrator 19.1.0, SVG Export Plug-In . SVG Version: 6.00 Build 0)  -->
<!DOCTYPE svg PUBLIC "-//W3C//DTD SVG 1.1//EN" "http://www.w3.org/Graphics/SVG/1.1/DTD/svg11.dtd">
<svg version="1.1" xmlns="http://www.w3.org/2000/svg" xmlns:xlink="http://www.w3.org/1999/xlink" x="0px" y="0px" width="120px"
	 height="120px" viewBox="0 0 120 120" enable-background="new 0 0 120 120" xml:space="preserve">
<g id="Staff_Channels">
	<g id="Signature">
	</g>
	<g id="Shortcuts">
	</g>
	<g id="Microphone">
	</g>
	<g id="Dial">
	</g>
</g>
<g id="Social_Icons">
	<g id="Youtube">
	</g>
	<g id="Youtube_Solid">
	</g>
	<g id="Weibo">
	</g>
	<g id="Weibo_Solid">
	</g>
	<g id="Vimeo">
	</g>
	<g id="Vimeo_Solid">
		<path d="M12,12v96h96V12H12z M92,48c-0.3,6.4-4.8,15.3-13.5,26.5C69.5,86.1,61.9,92,55.7,92c-3.9,0-7.1-3.6-9.8-10.7
			c-1.8-6.5-3.6-13.1-5.3-19.6c-2-7.1-4.1-10.7-6.4-10.7c-0.5,0-2.2,1-5.2,3.1l-3.1-4c3.3-2.9,6.5-5.7,9.6-8.6
			c4.3-3.8,7.6-5.7,9.8-5.9c5.1-0.5,8.3,3,9.5,10.6c1.3,8.1,2.2,13.2,2.7,15.2c1.5,6.7,3.1,10.1,4.9,10.1c1.4,0,3.5-2.2,6.2-6.6
			c2.8-4.4,4.2-7.7,4.5-10c0.4-3.8-1.1-5.7-4.5-5.7c-1.6,0-3.2,0.4-4.9,1.1c3.2-10.7,9.5-15.8,18.6-15.5C89.2,34.9,92.4,39.3,92,48z
			"/>
	</g>
	<g id="Twitter">
	</g>
	<g id="Twitter_Solid">
	</g>
	<g id="LinkedIn">
	</g>
	<g id="LinkedIn_Solid">
	</g>
	<g id="GooglePlus">
	</g>
	<g id="GooglePlus_Solid">
	</g>
	<g id="Facebook">
	</g>
	<g id="Facebook_Solid">
	</g>
</g>
<g id="Icons_3_">
	<g id="Warning">
	</g>
	<g id="View">
	</g>
	<g id="Video">
	</g>
	<g id="User_personal">
	</g>
	<g id="Upload">
	</g>
	<g id="Travel">
	</g>
	<g id="Transfer">
	</g>
	<g id="Tools">
	</g>
	<g id="Time">
	</g>
	<g id="Time_fast_track">
	</g>
	<g id="Take_photo">
	</g>
	<g id="Tablet">
	</g>
	<g id="Switch">
	</g>
	<g id="Survey">
	</g>
	<g id="Subtract">
	</g>
	<g id="Stock_Up">
	</g>
	<g id="Stock_down">
	</g>
	<g id="Sound">
	</g>
	<g id="Shopping_Cart">
	</g>
	<g id="Share">
	</g>
	<g id="Settings">
	</g>
	<g id="Security">
	</g>
	<g id="Secure_Key_Passcode">
	</g>
	<g id="Search">
	</g>
	<g id="Script">
	</g>
</g>
</svg>
